{"title":"Battle.of.the.Empires[2013]EngDub.5.1.DvDrip.x264-r3mnants","uid":10137205,"size":1830968791,"categoryP":"video","categoryS":"movies","magnet":"?xt=urn:btih:d7322a5d23c3ba6f59b5cb5927fc60dcc91acba7&amp;dn=Battle.of.the.Empires%5B2013%5DEngDub.5.1.DvDrip.x264-r3mnants&amp;tr=udp%3A%2F%2Ftracker.openbittorrent.com%3A80&amp;tr=udp%3A%2F%2Fopen.demonii.com%3A1337&amp;tr=udp%3A%2F%2Ftracker.coppersurfer.tk%3A6969&amp;tr=udp%3A%2F%2Fexodus.desync.com%3A6969","seeders":1,"leechers":0,"uploader":null,"files":1,"time":1399956693,"description":"Notes:\nSome reason the beginning of the movie has a foreign language but the rest of the movie is dubbed in English. This isn't my fault and is this way on the DVD itself.\n\nA young and ambitious sultan ascends to the top of the Ottoman throne, desperately seeking more power for his nation. Braving his enemies, he attempts the unthinkable and courageously tries to conquer Constantinople for his people. After marching his heroic group of warriors straight towards Constantinople, the resulting battle is one of the greatest and most brutal sieges anyone will ever witness.\n &lt;a href=&quot;\nhttp://postimg.org/image/maquztui1&quot; rel=&quot;nofollow&quot; target=&quot;_NEW&quot;&gt;\nhttp://postimg.org/image/maquztui1&lt;/a&gt;\n &lt;a href=&quot;\nhttp://postimg.org/image/5fhem1kyx&quot; rel=&quot;nofollow&quot; target=&quot;_NEW&quot;&gt;\nhttp://postimg.org/image/5fhem1kyx&lt;/a&gt;\n\nGeneral\nFormat                                   : MPEG-4\nFormat profile                           : Base Media\nCodec ID                                 : isom\nFile size                                : 1.71 GiB\nDuration                                 : 2h 16mn\nOverall bit rate mode                    : Variable\nOverall bit rate                         : 1 795 Kbps\n\nVideo\nID                                       : 1\nFormat                                   : AVC\nFormat/Info                              : Advanced Video Codec\nFormat profile                           : &lt;a class=&quot;__cf_email__&quot; href=&quot;/cdn-cgi/l/email-protection&quot; data-cfemail=&quot;347c5d535c7478001a04&quot;&gt;[email&amp;#160;protected]&lt;/a&gt;&lt;script cf-hash='f9e31' type=&quot;text/javascript&quot;&gt;\n/* &lt;![CDATA[ */!function(){try{var t=&quot;currentScript&quot;in document?document.currentScript:function(){for(var t=document.getElementsByTagName(&quot;script&quot;),e=t.length;e--;)if(t[e].getAttribute(&quot;cf-hash&quot;))return t[e]}();if(t&amp;&amp;t.previousSibling){var e,r,n,i,c=t.previousSibling,a=c.getAttribute(&quot;data-cfemail&quot;);if(a){for(e=&quot;&quot;,r=parseInt(a.substr(0,2),16),n=2;a.length-n;n+=2)i=parseInt(a.substr(n,2),16)^r,e+=String.fromCharCode(i);e=document.createTextNode(e),c.parentNode.replaceChild(e,c)}}}catch(u){}}();/* ]]&gt; */&lt;/script&gt;\nFormat settings, CABAC                   : Yes\nFormat settings, ReFrames                : 3 frames\nCodec ID                                 : avc1\nCodec ID/Info                            : Advanced Video Coding\nDuration                                 : 2h 16mn\nBit rate mode                            : Variable\nBit rate                                 : 1 536 Kbps\nMaximum bit rate                         : 25.0 Mbps\nWidth                                    : 720 pixels\nHeight                                   : 480 pixels\nDisplay aspect ratio                     : 16:9\nOriginal display aspect ratio            : 16:9\nFrame rate mode                          : Constant\nFrame rate                               : 29.970 fps\nStandard                                 : NTSC\nColor space                              : YUV\nChroma subsampling                       : 4:2:0\nBit depth                                : 8 bits\nScan type                                : Progressive\nBits/(Pixel*Frame)                       : 0.148\nStream size                              : 1.46 GiB (86%)\nWriting library                          : x264 core 135 r2345 f0c1c53\n\nAudio\nID                                       : 2\nFormat                                   : AAC\nFormat/Info                              : Advanced Audio Codec\nFormat profile                           : LC\nCodec ID                                 : 40\nDuration                                 : 2h 16mn\nBit rate mode                            : Variable\nBit rate                                 : 256 Kbps\nMaximum bit rate                         : 264 Kbps\nChannel(s)                               : 6 channels\nChannel positions                        : Front: L C R, Side: L R, LFE\nSampling rate                            : 48.0 KHz\nCompression mode                         : Lossy\nStream size                              : 249 MiB (14%)","torrent":{"xt":"urn:btih:d7322a5d23c3ba6f59b5cb5927fc60dcc91acba7","amp;dn":"Battle.of.the.Empires%5B2013%5DEngDub.5.1.DvDrip.x264-r3mnants","amp;tr":["udp%3A%2F%2Ftracker.openbittorrent.com%3A80","udp%3A%2F%2Fopen.demonii.com%3A1337","udp%3A%2F%2Ftracker.coppersurfer.tk%3A6969","udp%3A%2F%2Fexodus.desync.com%3A6969"],"infoHash":"d7322a5d23c3ba6f59b5cb5927fc60dcc91acba7","infoHashBuffer":{"type":"Buffer","data":[215,50,42,93,35,195,186,111,89,181,203,89,39,252,96,220,201,26,203,167]},"announce":[],"urlList":[]}}